<mxfile host="app.diagrams.net" modified="2023-03-24T15:10:45.486Z" agent="Mozilla/5.0 (Windows NT 10.0; Win64; x64) AppleWebKit/537.36 (KHTML, like Gecko) Chrome/111.0.0.0 Safari/537.36" etag="yRqlkohp-XnzA_LlJfwT" version="21.1.0" type="github">
  <diagram id="C5RBs43oDa-KdzZeNtuy" name="Page-1">
    <mxGraphModel dx="1195" dy="1832" grid="1" gridSize="10" guides="1" tooltips="1" connect="1" arrows="1" fold="1" page="1" pageScale="1" pageWidth="827" pageHeight="1169" math="0" shadow="0">
      <root>
        <mxCell id="WIyWlLk6GJQsqaUBKTNV-0" />
        <mxCell id="WIyWlLk6GJQsqaUBKTNV-1" parent="WIyWlLk6GJQsqaUBKTNV-0" />
        <mxCell id="TuZljq76idqd-cObdHlX-10" value="" style="edgeStyle=orthogonalEdgeStyle;rounded=0;orthogonalLoop=1;jettySize=auto;html=1;entryX=0;entryY=0.5;entryDx=0;entryDy=0;" parent="WIyWlLk6GJQsqaUBKTNV-1" source="TuZljq76idqd-cObdHlX-0" target="TuZljq76idqd-cObdHlX-5" edge="1">
          <mxGeometry relative="1" as="geometry">
            <mxPoint x="200" y="160.00000000000023" as="targetPoint" />
          </mxGeometry>
        </mxCell>
        <mxCell id="TuZljq76idqd-cObdHlX-0" value="Водитель&lt;br&gt;" style="shape=umlActor;verticalLabelPosition=bottom;verticalAlign=top;html=1;outlineConnect=0;" parent="WIyWlLk6GJQsqaUBKTNV-1" vertex="1">
          <mxGeometry x="90" y="130" width="30" height="60" as="geometry" />
        </mxCell>
        <mxCell id="zH3wVgWOgvG_BgnSBYFF-2" value="" style="edgeStyle=orthogonalEdgeStyle;rounded=0;orthogonalLoop=1;jettySize=auto;html=1;" edge="1" parent="WIyWlLk6GJQsqaUBKTNV-1" source="TuZljq76idqd-cObdHlX-1" target="TuZljq76idqd-cObdHlX-6">
          <mxGeometry relative="1" as="geometry" />
        </mxCell>
        <mxCell id="TuZljq76idqd-cObdHlX-1" value="Пассажир&lt;br&gt;" style="shape=umlActor;verticalLabelPosition=bottom;verticalAlign=top;html=1;outlineConnect=0;" parent="WIyWlLk6GJQsqaUBKTNV-1" vertex="1">
          <mxGeometry x="90" y="-15" width="30" height="60" as="geometry" />
        </mxCell>
        <mxCell id="TuZljq76idqd-cObdHlX-2" value="Actor" style="shape=umlActor;verticalLabelPosition=bottom;verticalAlign=top;html=1;outlineConnect=0;" parent="WIyWlLk6GJQsqaUBKTNV-1" vertex="1">
          <mxGeometry x="90" y="560" width="30" height="60" as="geometry" />
        </mxCell>
        <mxCell id="TuZljq76idqd-cObdHlX-5" value="" style="ellipse;whiteSpace=wrap;html=1;" parent="WIyWlLk6GJQsqaUBKTNV-1" vertex="1">
          <mxGeometry x="208.75" y="95" width="192.5" height="130" as="geometry" />
        </mxCell>
        <mxCell id="zH3wVgWOgvG_BgnSBYFF-10" style="edgeStyle=orthogonalEdgeStyle;rounded=0;orthogonalLoop=1;jettySize=auto;html=1;entryX=0.5;entryY=1;entryDx=0;entryDy=0;" edge="1" parent="WIyWlLk6GJQsqaUBKTNV-1" source="TuZljq76idqd-cObdHlX-6" target="zH3wVgWOgvG_BgnSBYFF-5">
          <mxGeometry relative="1" as="geometry" />
        </mxCell>
        <mxCell id="TuZljq76idqd-cObdHlX-6" value="Приходит в автовокзал, выбирает рейс" style="ellipse;whiteSpace=wrap;html=1;" parent="WIyWlLk6GJQsqaUBKTNV-1" vertex="1">
          <mxGeometry x="210" y="-50" width="190" height="130" as="geometry" />
        </mxCell>
        <mxCell id="TuZljq76idqd-cObdHlX-7" value="" style="ellipse;whiteSpace=wrap;html=1;" parent="WIyWlLk6GJQsqaUBKTNV-1" vertex="1">
          <mxGeometry x="175" y="530" width="190" height="145" as="geometry" />
        </mxCell>
        <mxCell id="zH3wVgWOgvG_BgnSBYFF-13" style="edgeStyle=orthogonalEdgeStyle;rounded=0;orthogonalLoop=1;jettySize=auto;html=1;exitX=1;exitY=0.5;exitDx=0;exitDy=0;" edge="1" parent="WIyWlLk6GJQsqaUBKTNV-1" source="zH3wVgWOgvG_BgnSBYFF-3" target="zH3wVgWOgvG_BgnSBYFF-5">
          <mxGeometry relative="1" as="geometry" />
        </mxCell>
        <mxCell id="zH3wVgWOgvG_BgnSBYFF-3" value="Заходит на сайт, выбирает рейс" style="ellipse;whiteSpace=wrap;html=1;" vertex="1" parent="WIyWlLk6GJQsqaUBKTNV-1">
          <mxGeometry x="210" y="-180" width="190" height="130" as="geometry" />
        </mxCell>
        <mxCell id="zH3wVgWOgvG_BgnSBYFF-11" style="edgeStyle=orthogonalEdgeStyle;rounded=0;orthogonalLoop=1;jettySize=auto;html=1;exitX=1;exitY=0.5;exitDx=0;exitDy=0;" edge="1" parent="WIyWlLk6GJQsqaUBKTNV-1" source="zH3wVgWOgvG_BgnSBYFF-5" target="zH3wVgWOgvG_BgnSBYFF-7">
          <mxGeometry relative="1" as="geometry" />
        </mxCell>
        <mxCell id="zH3wVgWOgvG_BgnSBYFF-5" value="Заказывает билет на рейс&lt;br&gt;" style="ellipse;whiteSpace=wrap;html=1;" vertex="1" parent="WIyWlLk6GJQsqaUBKTNV-1">
          <mxGeometry x="450" y="-180" width="190" height="130" as="geometry" />
        </mxCell>
        <mxCell id="zH3wVgWOgvG_BgnSBYFF-9" value="" style="edgeStyle=orthogonalEdgeStyle;rounded=0;orthogonalLoop=1;jettySize=auto;html=1;" edge="1" parent="WIyWlLk6GJQsqaUBKTNV-1" source="zH3wVgWOgvG_BgnSBYFF-6" target="zH3wVgWOgvG_BgnSBYFF-3">
          <mxGeometry relative="1" as="geometry" />
        </mxCell>
        <mxCell id="zH3wVgWOgvG_BgnSBYFF-6" value="Онлайн Пассажир" style="shape=umlActor;verticalLabelPosition=bottom;verticalAlign=top;html=1;outlineConnect=0;" vertex="1" parent="WIyWlLk6GJQsqaUBKTNV-1">
          <mxGeometry x="90" y="-145" width="30" height="60" as="geometry" />
        </mxCell>
        <mxCell id="zH3wVgWOgvG_BgnSBYFF-12" style="edgeStyle=orthogonalEdgeStyle;rounded=0;orthogonalLoop=1;jettySize=auto;html=1;exitX=1;exitY=0.5;exitDx=0;exitDy=0;entryX=0;entryY=0.5;entryDx=0;entryDy=0;" edge="1" parent="WIyWlLk6GJQsqaUBKTNV-1" source="zH3wVgWOgvG_BgnSBYFF-7" target="zH3wVgWOgvG_BgnSBYFF-8">
          <mxGeometry relative="1" as="geometry" />
        </mxCell>
        <mxCell id="zH3wVgWOgvG_BgnSBYFF-7" value="Приходит на автовокзал в назаченное время" style="ellipse;whiteSpace=wrap;html=1;" vertex="1" parent="WIyWlLk6GJQsqaUBKTNV-1">
          <mxGeometry x="680" y="-180" width="190" height="130" as="geometry" />
        </mxCell>
        <mxCell id="zH3wVgWOgvG_BgnSBYFF-8" value="Садится в атобус" style="ellipse;whiteSpace=wrap;html=1;" vertex="1" parent="WIyWlLk6GJQsqaUBKTNV-1">
          <mxGeometry x="900" y="-180" width="190" height="130" as="geometry" />
        </mxCell>
      </root>
    </mxGraphModel>
  </diagram>
</mxfile>
